<?xml version="1.0" encoding="UTF-8" standalone="no"?>
<!-- Created with Inkscape (http://www.inkscape.org/) -->

<svg
   xmlns:dc="http://purl.org/dc/elements/1.1/"
   xmlns:cc="http://creativecommons.org/ns#"
   xmlns:rdf="http://www.w3.org/1999/02/22-rdf-syntax-ns#"
   xmlns:svg="http://www.w3.org/2000/svg"
   xmlns="http://www.w3.org/2000/svg"
   xmlns:sodipodi="http://sodipodi.sourceforge.net/DTD/sodipodi-0.dtd"
   xmlns:inkscape="http://www.inkscape.org/namespaces/inkscape"
   width="423.41898"
   height="55.080235"
   id="svg2"
   version="1.1"
   inkscape:version="0.48.5 r10040"
   sodipodi:docname="drawing-1.svg">
  <defs
     id="defs4" />
  <sodipodi:namedview
     id="base"
     pagecolor="#ffffff"
     bordercolor="#666666"
     borderopacity="1.0"
     inkscape:pageopacity="0.0"
     inkscape:pageshadow="2"
     inkscape:zoom="0.35"
     inkscape:cx="-268.13019"
     inkscape:cy="-160"
     inkscape:document-units="px"
     inkscape:current-layer="layer1"
     showgrid="true"
     inkscape:window-width="1920"
     inkscape:window-height="1018"
     inkscape:window-x="-8"
     inkscape:window-y="-8"
     inkscape:window-maximized="1"
     fit-margin-top="0"
     fit-margin-left="0"
     fit-margin-right="0"
     fit-margin-bottom="0">
    <inkscape:grid
       type="xygrid"
       id="grid2993"
       empspacing="5"
       visible="true"
       enabled="true"
       snapvisiblegridlinesonly="true"
       originx="-87.415905px"
       originy="-680px" />
  </sodipodi:namedview>
  <metadata
     id="metadata7">
    <rdf:RDF>
      <cc:Work
         rdf:about="">
        <dc:format>image/svg+xml</dc:format>
        <dc:type
           rdf:resource="http://purl.org/dc/dcmitype/StillImage" />
        <dc:title></dc:title>
      </cc:Work>
    </rdf:RDF>
  </metadata>
  <g
     inkscape:label="Layer 1"
     inkscape:groupmode="layer"
     id="layer1"
     transform="translate(-87.415905,-317.28195)">
    <g
       transform="translate(22.84375,23.924683)"
       style="font-size:72px;font-style:normal;font-variant:normal;font-weight:normal;font-stretch:normal;text-align:start;line-height:125%;letter-spacing:0px;word-spacing:0px;writing-mode:lr-tb;text-anchor:start;fill:#000000;fill-opacity:1;stroke:none;font-family:Slim Joe;-inkscape-font-specification:Slim Joe"
       id="flowRoot2985">
      <path
         d="m 64.572155,348.4375 33.623567,0 0,-1.43998 -32.255585,0 0,-25.48767 30.023613,0 0,-1.43998 -30.023613,0 0,-24.19169 32.255585,0 0,-1.43998 -33.623567,0 z"
         id="path3021"
         inkscape:connector-curvature="0" />
      <path
         d="m 153.54672,348.4375 2.23197,0 0,-53.9993 -1.43998,0 0,52.55932 -41.68746,-52.55932 -2.37597,0 0,53.9993 1.43998,0 0,-52.55932 z"
         id="path3023"
         inkscape:connector-curvature="0" />
      <path
         d="m 210.53812,339.43762 c -2.33102,2.36547 -5.04898,4.22244 -8.1539,5.57092 -3.105,1.34849 -6.43495,2.03548 -9.98987,2.06098 -7.27343,-0.1815 -13.31835,-2.68046 -18.13477,-7.49691 -4.81644,-4.81642 -7.31541,-10.86134 -7.4969,-18.13476 0.18149,-7.27338 2.68046,-13.31829 7.4969,-18.13477 4.81642,-4.81639 10.86134,-7.31535 18.13477,-7.4969 3.54892,0.0226 6.85487,0.67954 9.91787,1.97097 3.06292,1.29153 5.75688,3.08251 8.0819,5.37293 l 1.00798,-0.93598 c -2.47051,-2.43442 -5.32347,-4.3334 -8.55889,-5.69693 -3.23549,-1.36343 -6.71844,-2.05642 -10.44886,-2.07897 -7.64543,0.19355 -14.00834,2.83051 -19.08876,7.91089 -5.08044,5.08048 -7.7174,11.44339 -7.91089,19.08876 0.19349,7.64542 2.83045,14.00833 7.91089,19.08875 5.08042,5.08044 11.44333,7.7174 19.08876,7.9109 3.76792,-0.024 7.28387,-0.73199 10.54786,-2.12397 3.26391,-1.39198 6.13187,-3.32396 8.60389,-5.79593 z"
         id="path3025"
         inkscape:connector-curvature="0" />
      <path
         d="m 219.71421,348.4375 8.0639,-17.35178 32.68758,0 8.20789,17.35178 1.58398,0 -25.41567,-53.9993 -1.51198,0 -25.19968,53.9993 z m 24.40769,-52.34333 15.6238,33.55157 -31.2476,0 z"
         id="path3027"
         inkscape:connector-curvature="0" />
    </g>
    <flowRoot
       xml:space="preserve"
       id="flowRoot2995"
       style="font-size:72px;font-style:normal;font-variant:normal;font-weight:normal;font-stretch:normal;text-align:start;line-height:125%;letter-spacing:0px;word-spacing:0px;writing-mode:lr-tb;text-anchor:start;fill:#000000;fill-opacity:1;stroke:none;font-family:Big John;-inkscape-font-specification:Big John"><flowRegion
         id="flowRegion2997"><rect
           id="rect2999"
           width="320"
           height="51.42857"
           x="285.71429"
           y="292.36218"
           style="font-size:72px;font-style:normal;font-variant:normal;font-weight:normal;font-stretch:normal;text-align:start;line-height:125%;writing-mode:lr-tb;text-anchor:start;font-family:Big John;-inkscape-font-specification:Big John" /></flowRegion><flowPara
         id="flowPara3001">DECO</flowPara></flowRoot>    <g
       transform="translate(-18,0)"
       style="font-size:72px;font-style:normal;font-variant:normal;font-weight:normal;font-stretch:normal;text-align:start;line-height:125%;letter-spacing:0px;word-spacing:0px;writing-mode:lr-tb;text-anchor:start;fill:#000000;fill-opacity:1;stroke:none;font-family:Big John;-inkscape-font-specification:Big John"
       id="flowRoot3003">
      <path
         d="m 319.75318,371.28125 20.01574,0 c 7.64537,-0.1935 14.00828,-2.83046 19.08876,-7.9109 5.08038,-5.08042 7.71734,-11.44333 7.91089,-19.08875 -0.19354,-7.64537 -2.83051,-14.00828 -7.91089,-19.08876 -5.08048,-5.08038 -11.44339,-7.71734 -19.08876,-7.91089 l -20.01574,0 z m 14.11182,-39.52749 5.97592,0 c 3.62093,0.0945 6.63888,1.34552 9.05388,3.75295 2.41494,2.4075 3.66892,5.40446 3.76196,8.99088 -0.093,3.62098 -1.34702,6.63894 -3.76196,9.05389 -2.415,2.41498 -5.43296,3.66896 -9.05388,3.76195 l -5.97592,0 z"
         id="path3012"
         inkscape:connector-curvature="0" />
      <path
         d="m 376.56568,371.28125 33.55157,0 0,-11.59185 -19.36775,0 0,-9.93587 17.13578,0 0,-11.95185 -17.13578,0 0,-8.78389 19.36775,0 0,-11.73584 -33.55157,0 z"
         id="path3014"
         inkscape:connector-curvature="0" />
      <path
         d="m 465.01148,325.12984 c -2.47052,-2.46891 -5.32348,-4.38889 -8.55889,-5.75992 -3.2355,-1.37093 -6.71845,-2.06692 -10.44887,-2.08797 -7.64542,0.19355 -14.00833,2.83051 -19.08875,7.91089 -5.08044,5.08048 -7.71741,11.44339 -7.9109,19.08876 0.1935,7.64542 2.83046,14.00833 7.9109,19.08875 5.08042,5.08044 11.44333,7.7174 19.08875,7.9109 3.76792,-0.027 7.28387,-0.74699 10.54787,-2.15997 3.26391,-1.41298 6.13187,-3.35695 8.60389,-5.83193 l -10.07987,-9.93587 c -1.12503,1.158 -2.45701,2.04599 -3.99595,2.66397 -1.53902,0.618 -3.23099,0.93 -5.07594,0.93598 -3.74098,-0.069 -6.77094,-1.26296 -9.08988,-3.58195 -2.31899,-2.31895 -3.51297,-5.34891 -3.58195,-9.08988 0.069,-3.74093 1.26296,-6.77088 3.58195,-9.08989 2.31895,-2.31893 5.34891,-3.51291 9.08988,-3.58195 1.84495,0.008 3.53692,0.31654 5.07594,0.92699 1.53894,0.61053 2.87092,1.47752 3.99595,2.60097 z"
         id="path3016"
         inkscape:connector-curvature="0" />
      <path
         d="m 474.90757,344.3536 c 0.19049,7.64242 2.81545,13.99333 7.8749,19.05275 5.05941,5.05944 11.41033,7.6844 19.05275,7.8749 7.64536,-0.1905 14.00828,-2.81546 19.08876,-7.8749 5.08037,-5.05942 7.71734,-11.41033 7.91089,-19.05275 -0.19355,-7.64837 -2.83051,-14.02328 -7.91089,-19.12476 -5.08048,-5.10138 -11.4434,-7.75034 -19.08876,-7.94689 -7.64243,0.19655 -13.99334,2.84551 -19.05275,7.94689 -5.05945,5.10148 -7.68441,11.47639 -7.8749,19.12476 z m 39.81549,-0.072 c -0.0915,3.62397 -1.34853,6.65393 -3.77096,9.08988 -2.4225,2.43598 -5.46146,3.70197 -9.11688,3.79795 -3.62098,-0.096 -6.63894,-1.36197 -9.05388,-3.79795 -2.41499,-2.43595 -3.66897,-5.46591 -3.76195,-9.08988 0.093,-3.65543 1.34696,-6.69438 3.76195,-9.11689 2.41494,-2.42243 5.4329,-3.67941 9.05388,-3.77095 3.65542,0.0915 6.69438,1.34852 9.11688,3.77095 2.42243,2.42251 3.67941,5.46147 3.77096,9.11689 z"
         id="path3018"
         inkscape:connector-curvature="0" />
    </g>
  </g>
</svg>
